<svg xmlns="http://www.w3.org/2000/svg" width="113" height="113" viewBox="0 0 113 113" fill="none"><circle cx="56.5" cy="56.5" r="56.5" fill="#F4F413"></circle><path d="M40.8833 94.1617C39.0795 94.5556 37.395 94.2506 35.83 93.2465C34.2649 92.2425 33.2854 90.8385 32.8915 89.0347L22.8648 43.1188C22.4709 41.315 22.7759 39.6305 23.78 38.0655C24.784 36.5004 26.188 35.5209 27.9918 35.127L31.2715 34.4108L29.8391 27.8514L36.3985 26.419L37.8309 32.9784L64.0686 27.2489L62.6362 20.6895L69.1956 19.2571L70.628 25.8165L73.9077 25.1003C75.7115 24.7064 77.396 25.0114 78.961 26.0155C80.5261 27.0195 81.5056 28.4235 81.8995 30.2273L91.9262 76.1432C92.3201 77.947 92.0151 79.6315 91.011 81.1965C90.007 82.7616 88.603 83.7411 86.7992 84.135L40.8833 94.1617ZM39.4509 87.6023L85.3668 77.5756L78.2049 44.7785L32.289 54.8053L39.4509 87.6023ZM30.8566 48.2458L76.7725 38.2191L75.3401 31.6597L29.4242 41.6864L30.8566 48.2458ZM58.1117 62.9107C57.1824 63.1136 56.3349 62.9694 55.569 62.4781C54.8031 61.9867 54.3187 61.2764 54.1158 60.3472C53.9129 59.4179 54.0571 58.5704 54.5484 57.8045C55.0398 57.0386 55.7501 56.5542 56.6793 56.3513C57.6086 56.1484 58.4561 56.2926 59.222 56.7839C59.9879 57.2753 60.4723 57.9856 60.6752 58.9148C60.8781 59.8441 60.7339 60.6916 60.2426 61.4575C59.7512 62.2234 59.0409 62.7078 58.1117 62.9107ZM44.9929 65.7755C44.0636 65.9784 43.2161 65.8342 42.4502 65.3429C41.6843 64.8515 41.1999 64.1412 40.997 63.212C40.7941 62.2827 40.9383 61.4352 41.4296 60.6693C41.9209 59.9034 42.6312 59.419 43.5605 59.2161C44.4897 59.0132 45.3373 59.1574 46.1032 59.6487C46.8691 60.14 47.3535 60.8503 47.5564 61.7796C47.7593 62.7088 47.6151 63.5564 47.1238 64.3223C46.6324 65.0882 45.9221 65.5726 44.9929 65.7755ZM71.2305 60.0459C70.3013 60.2488 69.4537 60.1046 68.6878 59.6133C67.9219 59.122 67.4375 58.4117 67.2346 57.4824C67.0317 56.5532 67.1759 55.7056 67.6672 54.9397C68.1586 54.1738 68.8689 53.6894 69.7981 53.4865C70.7274 53.2836 71.5749 53.4278 72.3408 53.9191C73.1067 54.4105 73.5911 55.1208 73.794 56.05C73.997 56.9793 73.8527 57.8268 73.3614 58.5927C72.8701 59.3586 72.1598 59.843 71.2305 60.0459ZM60.9765 76.0295C60.0472 76.2324 59.1997 76.0882 58.4338 75.5969C57.6679 75.1056 57.1835 74.3953 56.9806 73.466C56.7777 72.5368 56.9219 71.6892 57.4132 70.9233C57.9045 70.1574 58.6148 69.673 59.5441 69.4701C60.4733 69.2672 61.3209 69.4114 62.0868 69.9027C62.8527 70.3941 63.3371 71.1044 63.54 72.0336C63.7429 72.9629 63.5987 73.8104 63.1074 74.5763C62.616 75.3422 61.9057 75.8266 60.9765 76.0295ZM47.8577 78.8943C46.9284 79.0972 46.0808 78.953 45.315 78.4617C44.5491 77.9703 44.0647 77.2601 43.8618 76.3308C43.6588 75.4016 43.803 74.554 44.2944 73.7881C44.7857 73.0222 45.496 72.5378 46.4253 72.3349C47.3545 72.132 48.2021 72.2762 48.968 72.7675C49.7338 73.2589 50.2182 73.9692 50.4212 74.8984C50.6241 75.8277 50.4799 76.6752 49.9885 77.4411C49.4972 78.207 48.7869 78.6914 47.8577 78.8943ZM74.0953 73.1647C73.1661 73.3677 72.3185 73.2235 71.5526 72.7321C70.7867 72.2408 70.3023 71.5305 70.0994 70.6012C69.8965 69.672 70.0407 68.8244 70.532 68.0585C71.0234 67.2927 71.7337 66.8083 72.6629 66.6053C73.5922 66.4024 74.4397 66.5466 75.2056 67.038C75.9715 67.5293 76.4559 68.2396 76.6588 69.1688C76.8617 70.0981 76.7175 70.9457 76.2262 71.7115C75.7348 72.4774 75.0246 72.9618 74.0953 73.1647Z" fill="black"></path></svg>