<svg xmlns="http://www.w3.org/2000/svg" viewBox="0 0 200 200" width="200" height="200" preserveAspectRatio="xMidYMid meet" style="width: 100%; height: 100%; transform: translate3d(0px, 0px, 0px);"><defs><clipPath id="__lottie_element_2"><rect width="200" height="200" x="0" y="0"></rect></clipPath></defs><g clip-path="url(#__lottie_element_2)"><g transform="matrix(0.8246399760246277,0,0,0.8246399760246277,8.4649658203125,13.000480651855469)" opacity="1" style="display: block;"><g opacity="1" transform="matrix(1,0,0,1,64,108.64600372314453)"><path stroke-linecap="round" stroke-linejoin="miter" fill-opacity="0" stroke-miterlimit="4" stroke="rgb(18,23,13)" stroke-opacity="1" stroke-width="8" d=" M-58.10900115966797,-11.081999778747559 C-52.90399932861328,-45.15800094604492 -31.073999404907227,-75.48400115966797 1.2170000076293945,-97.5 C-5.059999942779541,-83.16600036621094 -8.428000450134277,-67.86100006103516 -8.428000450134277,-51.965999603271484 C-8.428000450134277,-42.702999114990234 -7.2820000648498535,-33.617000579833984 -5.059999942779541,-24.81800079345703 C-5.059999942779541,-24.81800079345703 60,-24.81800079345703 60,-24.81800079345703 C60,-24.81800079345703 60,97.5 60,97.5 C60,97.5 16.422000885009766,97.5 -18.211999893188477,97.5"></path></g><g opacity="1" transform="matrix(1,0,0,1,163.7530059814453,108.64600372314453)"><path stroke-linecap="round" stroke-linejoin="miter" fill-opacity="0" stroke-miterlimit="4" stroke="rgb(18,23,13)" stroke-opacity="1" stroke-width="8" d=" M-15.765999794006348,-89.73600006103516 C-12.38700008392334,-92.4260025024414 -8.864999771118164,-95.01599884033203 -5.208000183105469,-97.5 C-11.468000411987305,-83.197998046875 -14.869999885559082,-67.94999694824219 -14.869999885559082,-52.130001068115234 C-14.869999885559082,-42.64699935913086 -13.654999732971191,-33.362998962402344 -11.32699966430664,-24.381999969482422 C-11.32699966430664,-24.381999969482422 54.24599838256836,-24.381999969482422 54.24599838256836,-24.381999969482422 C54.24599838256836,-24.381999969482422 54.24599838256836,97.5 54.24599838256836,97.5 C54.24599838256836,97.5 29.490999221801758,97.5 8.23799991607666,97.5"></path></g></g></g></svg>
