<svg xmlns="http://www.w3.org/2000/svg" width="113" height="113" viewBox="0 0 113 113" fill="none"><circle cx="56.5" cy="56.5" r="56.5" fill="#F4F413"></circle><path d="M32.6377 101.672L15.8084 48.2604L31.0688 43.452L26.2604 28.1916L64.4114 16.1706L74.0281 46.6914L89.2885 41.883L101.309 80.034L70.7887 89.6508L65.9803 74.3904L58.3501 76.7946L63.1585 92.055L32.6377 101.672ZM37.8637 91.6374L45.4939 89.2332L43.0897 81.603L35.4596 84.0072L37.8637 91.6374ZM33.0554 76.377L40.6856 73.9728L38.2814 66.3426L30.6512 68.7468L33.0554 76.377ZM28.247 61.1166L35.8772 58.7124L33.473 51.0822L25.8428 53.4864L28.247 61.1166ZM48.3157 71.5686L55.9459 69.1644L53.5417 61.5342L45.9116 63.9384L48.3157 71.5686ZM43.5074 56.3082L51.1375 53.904L48.7334 46.2738L41.1032 48.678L43.5074 56.3082ZM38.699 41.0478L46.3292 38.6436L43.925 31.0134L36.2948 33.4176L38.699 41.0478ZM63.5761 66.7602L71.2063 64.356L68.8021 56.7258L61.1719 59.13L63.5761 66.7602ZM58.7677 51.4998L66.3979 49.0956L63.9937 41.4654L56.3635 43.8696L58.7677 51.4998ZM53.9594 36.2394L61.5895 33.8352L59.1854 26.205L51.5552 28.6092L53.9594 36.2394ZM83.6449 77.2122L91.2751 74.808L88.8709 67.1778L81.2407 69.582L83.6449 77.2122ZM78.8365 61.9518L86.4667 59.5476L84.0625 51.9174L76.4323 54.3216L78.8365 61.9518Z" fill="black"></path></svg>