<svg xmlns="http://www.w3.org/2000/svg" width="113" height="113" viewBox="0 0 113 113" fill="none"><path d="M0 7C0 3.13401 3.13401 0 7 0H106C109.866 0 113 3.13401 113 7V106C113 109.866 109.866 113 106 113H56.5C25.2959 113 0 87.7041 0 56.5V7Z" fill="#F4F413"></path><path d="M44.6875 76.3987L56.5 69.2987L68.3125 76.4921L65.2188 63.0395L75.625 54.0711L61.9375 52.8566L56.5 40.1513L51.0625 52.7632L37.375 53.9776L47.7812 63.0395L44.6875 76.3987ZM33.3438 92L39.4375 65.7487L19 48.0921L46 45.7566L56.5 21L67 45.7566L94 48.0921L73.5625 65.7487L79.6562 92L56.5 78.0803L33.3438 92Z" fill="black"></path></svg>