<svg xmlns="http://www.w3.org/2000/svg" width="307" height="311" viewBox="0 0 307 311" fill="none"><circle cx="152.735" cy="157.735" r="152.735" fill="#00C26E"></circle><g clip-path="url(#clip0_137_30)"><path d="M68.1769 249.255L89.9894 162.475L70.769 101.964L134.498 39.9767L225.073 62.743L251.918 147.497L206.37 191.728L184.558 278.507L131.264 244.4L68.1769 249.255ZM88.6989 231.818L135.207 228.714L174.719 253.44L185.912 208.911L99.8913 187.29L88.6989 231.818ZM139.032 57.2553L88.4791 106.415L109.779 173.636L183.655 192.205L234.208 143.045L212.908 75.8245L139.032 57.2553ZM141.242 159.757L116.934 119.485L130.548 111.341L146.647 138.251L200.216 105.988L208.424 119.349L141.242 159.757Z" fill="black"></path></g><defs><clipPath id="clip0_137_30"><rect width="250.436" height="250.436" fill="white" transform="translate(63.4324 0.595093) rotate(14.1093)"></rect></clipPath></defs></svg>