<svg xmlns="http://www.w3.org/2000/svg" width="306" height="306" viewBox="0 0 306 306" fill="none"><circle cx="152.735" cy="152.735" r="152.735" fill="#CAAB04"></circle><path d="M131.684 254.477L127.716 239.623L165.347 229.571L155.559 192.931C146.161 193.496 137.214 191.775 128.717 187.768C120.22 183.76 113.483 177.736 108.505 169.694C95.9389 171.636 84.3008 169.44 73.5908 163.106C62.8808 156.773 55.9165 147.582 52.6979 135.533L49.788 124.64C48.6857 120.514 49.193 116.621 51.3097 112.961C53.4264 109.301 56.5479 106.92 60.674 105.818L86.4211 98.9399L80.6012 77.1538L177.648 51.2289L183.468 73.0149L209.215 66.1369C213.341 65.0346 217.234 65.5419 220.894 67.6586C224.554 69.7753 226.935 72.8968 228.037 77.0229L230.947 87.9159C234.166 99.9643 232.713 111.404 226.588 122.235C220.464 133.066 211.471 140.773 199.61 145.356C199.306 154.809 196.471 163.391 191.104 171.102C185.737 178.812 178.84 184.766 170.413 188.962L180.201 225.603L217.831 215.55L221.799 230.404L131.684 254.477ZM101.368 154.89L90.3892 113.794L64.6421 120.672L67.5521 131.565C69.5361 138.992 73.7011 144.82 80.0469 149.048C86.3928 153.277 93.4997 155.224 101.368 154.89ZM159.216 176.835C168.624 174.322 175.705 168.894 180.461 160.55C185.217 152.207 186.338 143.331 183.825 133.924L166.762 70.0511L99.4235 88.0399L116.486 151.913C118.999 161.32 124.397 168.454 132.68 173.314C140.963 178.175 149.809 179.348 159.216 176.835ZM198.415 128.965C205.401 125.331 210.59 120.099 213.982 113.269C217.373 106.439 218.077 99.3111 216.093 91.884L213.183 80.991L187.436 87.8691L198.415 128.965Z" fill="black"></path></svg>