<svg xmlns="http://www.w3.org/2000/svg" width="113" height="113" viewBox="0 0 113 113" fill="none"><path d="M0 7C0 3.13401 3.13401 0 7 0H106C109.866 0 113 3.13401 113 7V106C113 109.866 109.866 113 106 113H56.5C25.2959 113 0 87.7041 0 56.5V7Z" fill="white" fill-opacity="0.14902"></path><path d="M26.5 92.25C24.4375 92.25 22.6719 91.5156 21.2031 90.0469C19.7344 88.5781 19 86.8125 19 84.75V43.5C19 41.4375 19.7344 39.6719 21.2031 38.2031C22.6719 36.7344 24.4375 36 26.5 36H41.5V28.5C41.5 26.4375 42.2344 24.6719 43.7031 23.2031C45.1719 21.7344 46.9375 21 49 21H64C66.0625 21 67.8281 21.7344 69.2969 23.2031C70.7656 24.6719 71.5 26.4375 71.5 28.5V36H86.5C88.5625 36 90.3281 36.7344 91.7969 38.2031C93.2656 39.6719 94 41.4375 94 43.5V84.75C94 86.8125 93.2656 88.5781 91.7969 90.0469C90.3281 91.5156 88.5625 92.25 86.5 92.25H26.5ZM26.5 84.75H86.5V43.5H26.5V84.75ZM49 36H64V28.5H49V36Z" fill="white"></path></svg>