<svg xmlns="http://www.w3.org/2000/svg" width="113" height="113" viewBox="0 0 113 113" fill="none"><path d="M0 7C0 3.13401 3.13401 0 7 0H106C109.866 0 113 3.13401 113 7V106C113 109.866 109.866 113 106 113H56.5C25.2959 113 0 87.7041 0 56.5V7Z" fill="#F4F413"></path><path d="M56.5 86.5C61.1875 86.5 65.1719 84.8594 68.4531 81.5781C71.7344 78.2969 73.375 74.3125 73.375 69.625C73.375 64.9375 71.7344 60.9531 68.4531 57.6719C65.1719 54.3906 61.1875 52.75 56.5 52.75C51.8125 52.75 47.8281 54.3906 44.5469 57.6719C41.2656 60.9531 39.625 64.9375 39.625 69.625C39.625 74.3125 41.2656 78.2969 44.5469 81.5781C47.8281 84.8594 51.8125 86.5 56.5 86.5ZM45.5312 47.875C46.7812 47.1875 48.1094 46.6406 49.5156 46.2344C50.9219 45.8281 52.3438 45.5625 53.7812 45.4375L44.3125 26.5H34.9375L45.5312 47.875ZM67.4688 47.875L78.1562 26.5H68.6875L60.7188 42.4375L62.5 46C63.375 46.25 64.2187 46.5156 65.0312 46.7969C65.8438 47.0781 66.6562 47.4375 67.4688 47.875ZM35.5 82C34.4375 80.1875 33.6094 78.2344 33.0156 76.1406C32.4219 74.0469 32.125 71.875 32.125 69.625C32.125 67.375 32.4219 65.2031 33.0156 63.1094C33.6094 61.0156 34.4375 59.0625 35.5 57.25C32.875 58.125 30.7188 59.6719 29.0312 61.8906C27.3438 64.1094 26.5 66.6875 26.5 69.625C26.5 72.5625 27.3438 75.1406 29.0312 77.3594C30.7188 79.5781 32.875 81.125 35.5 82ZM77.5 82C80.125 81.125 82.2812 79.5781 83.9688 77.3594C85.6562 75.1406 86.5 72.5625 86.5 69.625C86.5 66.6875 85.6562 64.1094 83.9688 61.8906C82.2812 59.6719 80.125 58.125 77.5 57.25C78.5625 59.0625 79.3906 61.0156 79.9844 63.1094C80.5781 65.2031 80.875 67.375 80.875 69.625C80.875 71.875 80.5781 74.0469 79.9844 76.1406C79.3906 78.2344 78.5625 80.1875 77.5 82ZM56.5 94C54 94 51.6094 93.6406 49.3281 92.9219C47.0469 92.2031 44.9375 91.2187 43 89.9688C42.4375 90.0938 41.875 90.1719 41.3125 90.2031C40.75 90.2344 40.1562 90.25 39.5312 90.25C33.8437 90.25 29 88.25 25 84.25C21 80.25 19 75.4063 19 69.7188C19 64.2812 20.8125 59.625 24.4375 55.75C28.0625 51.875 32.5312 49.7187 37.8438 49.2812L22.75 19H49L56.5 34L64 19H90.25L75.25 49.0938C80.5625 49.5938 85.0156 51.7813 88.6094 55.6562C92.2031 59.5312 94 64.1875 94 69.625C94 75.375 92 80.25 88 84.25C84 88.25 79.125 90.25 73.375 90.25C72.8125 90.25 72.2344 90.2344 71.6406 90.2031C71.0469 90.1719 70.4688 90.0938 69.9062 89.9688C67.9688 91.2187 65.875 92.2031 63.625 92.9219C61.375 93.6406 59 94 56.5 94ZM49.5625 79.9375L52.1875 71.4062L45.25 66.4375H53.7812L56.5 57.4375L59.2188 66.4375H67.75L60.8125 71.4062L63.4375 79.9375L56.5 74.6875L49.5625 79.9375Z" fill="black"></path></svg>