<svg xmlns="http://www.w3.org/2000/svg" width="113" height="113" viewBox="0 0 113 113" fill="none"><circle cx="56.5" cy="56.5" r="56.5" fill="#F4F413"></circle><path d="M64.3572 77.6374L70.9277 73.7731L60.7151 56.4082L65.1611 39.2653L57.7077 37.3323L52.4884 57.4565L64.3572 77.6374ZM46.9365 94.1994C41.7812 92.8623 37.1902 90.6276 33.1635 87.4951C29.1367 84.3627 25.8813 80.6845 23.3971 76.4606C20.913 72.2367 19.2806 67.6039 18.5 62.5623C17.7195 57.5207 17.9977 52.4223 19.3347 47.267C20.6717 42.1118 22.9065 37.5208 26.039 33.494C29.1714 29.4673 32.8496 26.2119 37.0735 23.7277C41.2974 21.2435 45.9302 19.6112 50.9718 18.8306C56.0133 18.05 61.1118 18.3283 66.267 19.6653C71.4223 21.0023 76.0133 23.2371 80.04 26.3695C84.0668 29.502 87.3222 33.1802 89.8064 37.4041C92.2905 41.628 93.9229 46.2607 94.7035 51.3023C95.484 56.3439 95.2058 61.4423 93.8688 66.5976C92.5318 71.7529 90.297 76.3439 87.1645 80.3706C84.0321 84.3973 80.3539 87.6528 76.13 90.1369C71.9061 92.6211 67.2733 94.2535 62.2317 95.034C57.1902 95.8146 52.0917 95.5364 46.9365 94.1994ZM48.8695 86.746C57.1304 88.8884 64.9176 87.809 72.2312 83.5078C79.5449 79.2065 84.2729 72.9254 86.4154 64.6646C88.5579 56.4037 87.4785 48.6165 83.1772 41.3028C78.8759 33.9892 72.5948 29.2612 64.334 27.1187C56.0731 24.9762 48.2859 26.0556 40.9723 30.3569C33.6586 34.6582 28.9306 40.9392 26.7881 49.2001C24.6456 57.461 25.725 65.2482 30.0263 72.5618C34.3276 79.8754 40.6087 84.6035 48.8695 86.746Z" fill="black"></path></svg>