<svg xmlns="http://www.w3.org/2000/svg" width="306" height="306" viewBox="0 0 306 306" fill="none"><circle cx="152.735" cy="152.735" r="152.735" fill="#EA1883"></circle><path d="M158.541 195.126L164.624 166.651L193.722 165.576L168.772 149.609L173.698 121.818L153.401 138.866L128.965 124.198L139.194 150.799L118.897 167.847L147.122 167.794L158.541 195.126ZM141.071 255.378C138.252 257.746 135.028 258.772 131.397 258.456C127.766 258.14 124.767 256.573 122.399 253.754L103.646 231.428C102.699 230.3 102.18 229.053 102.09 227.686C102 226.32 102.32 225.041 103.051 223.85C105.505 219.674 106.369 215.15 105.643 210.279C104.917 205.408 103.038 201.168 100.007 197.56C97.0714 194.065 93.2434 191.511 88.5235 189.898C83.8036 188.286 79.1749 188.327 74.6376 190.023C73.3386 190.537 72.0239 190.632 70.6934 190.307C69.3629 189.982 68.224 189.256 67.2769 188.128L48.524 165.802C46.1563 162.983 45.1303 159.758 45.4461 156.128C45.7619 152.497 47.3293 149.498 50.1483 147.13L165.162 50.524C167.981 48.1562 171.206 47.1302 174.837 47.446C178.467 47.7619 181.467 49.3293 183.834 52.1482L202.587 74.4745C203.534 75.602 204.053 76.8491 204.143 78.2157C204.233 79.5823 203.913 80.861 203.182 82.0517C200.729 86.2281 199.889 90.78 200.662 95.7075C201.435 100.635 203.29 104.846 206.226 108.342C209.257 111.95 213.109 114.532 217.781 116.089C222.454 117.645 227.059 117.575 231.596 115.879C232.895 115.365 234.21 115.27 235.54 115.595C236.871 115.92 238.009 116.646 238.957 117.774L257.709 140.1C260.077 142.919 261.103 146.144 260.787 149.775C260.472 153.405 258.904 156.405 256.085 158.772L141.071 255.378ZM132.547 245.23L247.561 148.624L232.076 130.188C225.329 130.855 218.755 130.127 212.355 128.002C205.955 125.878 200.529 122.166 196.078 116.866C191.626 111.566 188.907 105.581 187.919 98.9105C186.932 92.2398 187.349 85.6391 189.172 79.1083L173.686 60.6723L58.6723 157.278L74.1577 175.714C81.0178 174.952 87.6196 175.657 93.9632 177.829C100.307 180.001 105.704 183.736 110.156 189.036C114.607 194.336 117.355 200.297 118.399 206.921C119.443 213.544 118.997 220.168 117.062 226.794L132.547 245.23Z" fill="white"></path></svg>