<svg xmlns="http://www.w3.org/2000/svg" width="113" height="113" viewBox="0 0 113 113" fill="none"><circle cx="56.5" cy="56.5" r="56.5" fill="#F4F413"></circle><g clip-path="url(#clip0_129_27)"><path d="M55.9324 56.273C57.8621 56.8767 59.729 56.7063 61.533 55.762C63.3371 54.8177 64.5409 53.3807 65.1446 51.451C65.7482 49.5213 65.5779 47.6544 64.6336 45.8503C63.6892 44.0463 62.2522 42.8424 60.3225 42.2388C58.3928 41.6352 56.5259 41.8055 54.7219 42.7498C52.9178 43.6941 51.714 45.1312 51.1103 47.0609C50.5067 48.9906 50.677 50.8575 51.6214 52.6615C52.5657 54.4656 54.0027 55.6694 55.9324 56.273ZM47.8656 82.0609C57.0484 77.7433 64.2017 73.4488 69.3255 69.1775C74.4493 64.9062 77.6606 60.6946 78.9593 56.5428C80.9531 50.1689 80.5537 44.3143 77.7609 38.9789C74.9681 33.6435 70.6187 30.0521 64.7126 28.2046C58.8066 26.3571 53.1858 26.8297 47.8505 29.6225C42.5151 32.4153 38.8505 36.9986 36.8566 43.3725C35.5579 47.5243 35.7967 52.815 37.573 59.2448C39.3494 65.6746 42.7802 73.28 47.8656 82.0609ZM44.9571 91.3586C38.0485 80.4024 33.3444 70.7617 30.8449 62.4365C28.3454 54.1114 28.0103 47.025 29.8395 41.1774C32.5833 32.406 37.5907 26.3007 44.8616 22.8616C52.1326 19.4224 59.4812 18.8644 66.9077 21.1875C74.3341 23.5106 80.0548 28.1569 84.0698 35.1264C88.0847 42.096 88.7202 49.9665 85.9764 58.7379C84.1472 64.5855 79.8335 70.2176 73.0353 75.6343C66.2372 81.051 56.8778 86.2924 44.9571 91.3586Z" fill="black"></path></g><defs><clipPath id="clip0_129_27"><rect width="88.2291" height="88.2291" fill="white" transform="translate(27 1) rotate(17.3705)"></rect></clipPath></defs></svg>